<svg width="28" height="28" viewBox="0 0 28 28" fill="none" xmlns="http://www.w3.org/2000/svg">
<path d="M7.06454 10.7603C6.99237 10.6983 6.90747 10.6499 6.8147 10.6177C6.72192 10.5855 6.62308 10.5703 6.52382 10.5729C6.42456 10.5754 6.32683 10.5957 6.2362 10.6326C6.14557 10.6695 6.06383 10.7222 5.99563 10.7878C5.92743 10.8534 5.87411 10.9306 5.83872 11.0149C5.80333 11.0992 5.78656 11.189 5.78936 11.2792C5.79217 11.3695 5.8145 11.4583 5.85508 11.5407C5.89566 11.623 5.95369 11.6973 6.02586 11.7593L12.8294 17.5993C12.9698 17.7199 13.1556 17.7871 13.3488 17.7871C13.5419 17.7871 13.7278 17.7199 13.8681 17.5993L20.6725 11.7593C20.7462 11.6977 20.8058 11.6234 20.8477 11.5408C20.8896 11.4581 20.913 11.3687 20.9165 11.2777C20.9201 11.1868 20.9037 11.0961 20.8684 11.0109C20.833 10.9257 20.7794 10.8478 20.7107 10.7816C20.6419 10.7154 20.5594 10.6623 20.4678 10.6254C20.3763 10.5885 20.2776 10.5684 20.1775 10.5664C20.0774 10.5645 19.9778 10.5806 19.8846 10.6139C19.7914 10.6471 19.7064 10.6969 19.6345 10.7603L13.3488 16.1551L7.06454 10.7603Z" fill="#130E67"/>
</svg>
